<svg width="1200" height="1200" viewBox="0 0 1200 1200" fill="none" xmlns="http://www.w3.org/2000/svg">
<path d="M600 1200C931.371 1200 1200 931.371 1200 600C1200 268.629 931.371 0 600 0C268.629 0 0 268.629 0 600C0 931.371 268.629 1200 600 1200ZM645.923 917.578L620.142 798.85C695.683 782.129 765.147 760.382 759.522 676.025H670.752V360.057H938.159V655.371C938.064 890.062 765.758 909.157 645.923 917.578V917.578ZM287.695 917.578L261.841 798.85C337.382 782.129 406.846 760.382 401.221 676.025H312.451V360.057H579.858V655.371C579.764 890.062 407.53 909.157 287.695 917.578V917.578Z" fill="#F4CE02"/>
</svg>
